<svg width="16" height="16" viewBox="0 0 16 16" fill="none" xmlns="http://www.w3.org/2000/svg">
<path d="M15.2844 14.2156C15.4253 14.3578 15.5043 14.5498 15.5043 14.75C15.5043 14.9501 15.4253 15.1422 15.2844 15.2843C15.1411 15.423 14.9495 15.5004 14.7501 15.5004C14.5507 15.5004 14.359 15.423 14.2157 15.2843L8.00007 9.05935L1.78444 15.2843C1.64109 15.423 1.44948 15.5004 1.25007 15.5004C1.05066 15.5004 0.859049 15.423 0.715693 15.2843C0.574857 15.1422 0.49585 14.9501 0.49585 14.75C0.49585 14.5498 0.574857 14.3578 0.715693 14.2156L6.94069 7.99997L0.715693 1.78435C0.596096 1.63862 0.534977 1.45363 0.544225 1.26534C0.553472 1.07705 0.632425 0.89893 0.765726 0.765629C0.899027 0.632328 1.07715 0.553375 1.26543 0.544128C1.45372 0.53488 1.63872 0.595999 1.78444 0.715596L8.00007 6.9406L14.2157 0.715596C14.3614 0.595999 14.5464 0.53488 14.7347 0.544128C14.923 0.553375 15.1011 0.632328 15.2344 0.765629C15.3677 0.89893 15.4467 1.07705 15.4559 1.26534C15.4652 1.45363 15.404 1.63862 15.2844 1.78435L9.05944 7.99997L15.2844 14.2156Z" fill="#1C1C1C"/>
</svg>
